<svg width="170" height="53" viewBox="0 0 170 53" fill="none" xmlns="http://www.w3.org/2000/svg">
<g id="Airbnb svg" clip-path="url(#clip0_1_405)">
<path id="Vector" d="M89.6456 13.3166C89.6456 15.2265 88.1132 16.765 86.2108 16.765C84.3085 16.765 82.7761 15.2265 82.7761 13.3166C82.7761 11.4067 84.2557 9.86811 86.2108 9.86811C88.166 9.92116 89.6456 11.4597 89.6456 13.3166ZM75.4838 20.2665C75.4838 20.5848 75.4838 21.1154 75.4838 21.1154C75.4838 21.1154 73.8457 18.9932 70.3581 18.9932C64.5982 18.9932 60.1066 23.3966 60.1066 29.4977C60.1066 35.5458 64.5454 40.0022 70.3581 40.0022C73.8985 40.0022 75.4838 37.8271 75.4838 37.8271V38.729C75.4838 39.1534 75.8009 39.4717 76.2236 39.4717H80.5038V19.5238C80.5038 19.5238 76.5935 19.5238 76.2236 19.5238C75.8009 19.5238 75.4838 19.8951 75.4838 20.2665ZM75.4838 33.0523C74.6912 34.2195 73.1059 35.2275 71.2036 35.2275C67.8216 35.2275 65.2323 33.1053 65.2323 29.4977C65.2323 25.8901 67.8216 23.768 71.2036 23.768C73.053 23.768 74.744 24.8291 75.4838 25.9432V33.0523ZM83.6744 19.5238H88.7473V39.4717H83.6744V19.5238ZM159.451 18.9932C155.963 18.9932 154.325 21.1154 154.325 21.1154V9.92117H149.252V39.4717C149.252 39.4717 153.162 39.4717 153.532 39.4717C153.955 39.4717 154.272 39.1003 154.272 38.729V37.8271C154.272 37.8271 155.91 40.0022 159.398 40.0022C165.158 40.0022 169.649 35.5458 169.649 29.4977C169.649 23.4497 165.158 18.9932 159.451 18.9932ZM158.605 35.1744C156.65 35.1744 155.117 34.1664 154.325 32.9992V25.8901C155.117 24.8291 156.808 23.715 158.605 23.715C161.987 23.715 164.576 25.8371 164.576 29.4447C164.576 33.0523 161.987 35.1744 158.605 35.1744ZM146.61 27.6409V39.5248H141.537V28.2245C141.537 24.9352 140.48 23.6089 137.627 23.6089C136.094 23.6089 134.509 24.4046 133.505 25.5718V39.4717H128.432V19.5238H132.448C132.871 19.5238 133.188 19.8951 133.188 20.2665V21.1154C134.667 19.5768 136.623 18.9932 138.578 18.9932C140.797 18.9932 142.647 19.6299 144.126 20.9031C145.923 22.3886 146.61 24.2985 146.61 27.6409ZM116.12 18.9932C112.632 18.9932 110.994 21.1154 110.994 21.1154V9.92117H105.921V39.4717C105.921 39.4717 109.831 39.4717 110.201 39.4717C110.624 39.4717 110.941 39.1003 110.941 38.729V37.8271C110.941 37.8271 112.579 40.0022 116.067 40.0022C121.827 40.0022 126.318 35.5458 126.318 29.4977C126.371 23.4497 121.88 18.9932 116.12 18.9932ZM115.274 35.1744C113.319 35.1744 111.787 34.1664 110.994 32.9992V25.8901C111.787 24.8291 113.478 23.715 115.274 23.715C118.656 23.715 121.245 25.8371 121.245 29.4447C121.245 33.0523 118.656 35.1744 115.274 35.1744ZM101.535 18.9932C103.068 18.9932 103.86 19.2585 103.86 19.2585V23.9802C103.86 23.9802 99.6328 22.5478 96.9907 25.5718V39.5248H91.9178V19.5238C91.9178 19.5238 95.8282 19.5238 96.1981 19.5238C96.6208 19.5238 96.9379 19.8951 96.9379 20.2665V21.1154C97.889 20.0012 99.9499 18.9932 101.535 18.9932ZM48.8512 37.6679C48.587 37.0313 48.3227 36.3416 48.0585 35.758C47.6358 34.803 47.213 33.9011 46.8431 33.0523L46.7903 32.9992C43.1442 25.0413 39.2338 16.9772 35.1121 9.01926L34.9536 8.70094C34.5308 7.90515 34.1081 7.0563 33.6854 6.20745C33.1569 5.2525 32.6285 4.24449 31.783 3.28953C30.0921 1.16741 27.6613 0.000244141 25.072 0.000244141C22.4299 0.000244141 20.052 1.16741 18.3082 3.18343C17.5155 4.13838 16.9343 5.14639 16.4059 6.10135C15.9831 6.95019 15.5604 7.79904 15.1376 8.59484L14.9791 8.91316C10.9102 16.8711 6.94704 24.9352 3.30091 32.8931L3.24806 32.9992C2.87817 33.8481 2.45543 34.75 2.03269 35.7049C1.76847 36.2885 1.50426 36.9252 1.24005 37.6149C0.553096 39.5778 0.341726 41.4347 0.605938 43.3446C1.18721 47.3236 3.82933 50.6659 7.47547 52.1514C8.84937 52.735 10.2761 53.0002 11.7557 53.0002C12.1785 53.0002 12.7069 52.9472 13.1296 52.8941C14.8734 52.6819 16.6701 52.0983 18.4139 51.0903C20.5804 49.8701 22.6413 48.1194 24.9663 45.5728C27.2914 48.1194 29.4051 49.8701 31.5188 51.0903C33.2626 52.0983 35.0593 52.6819 36.8031 52.8941C37.2258 52.9472 37.7542 53.0002 38.177 53.0002C39.6566 53.0002 41.1362 52.735 42.4572 52.1514C46.1562 50.6659 48.7455 47.2705 49.3267 43.3446C49.7495 41.4877 49.5381 39.6309 48.8512 37.6679ZM25.0192 40.4267C22.1657 36.8191 20.3162 33.4237 19.6821 30.5588C19.4179 29.3386 19.365 28.2775 19.5236 27.3226C19.6292 26.4737 19.9463 25.731 20.369 25.0943C21.3731 23.6619 23.064 22.76 25.0192 22.76C26.9744 22.76 28.7182 23.6089 29.6693 25.0943C30.0921 25.731 30.4091 26.4737 30.5148 27.3226C30.6733 28.2775 30.6205 29.3916 30.3563 30.5588C29.7222 33.3706 27.8727 36.766 25.0192 40.4267ZM46.1034 42.9202C45.7335 45.6789 43.884 48.0663 41.2947 49.1274C40.0265 49.6579 38.6526 49.8171 37.2787 49.6579C35.9576 49.4987 34.6365 49.0743 33.2626 48.2785C31.3603 47.2175 29.458 45.5728 27.2386 43.1324C30.7262 38.8351 32.8399 34.9092 33.6325 31.4076C34.0024 29.763 34.0553 28.2775 33.8967 26.8981C33.6854 25.5718 33.2098 24.3516 32.47 23.2905C30.8319 20.9031 28.0841 19.5238 25.0192 19.5238C21.9543 19.5238 19.2065 20.9562 17.5684 23.2905C16.8286 24.3516 16.353 25.5718 16.1416 26.8981C15.9303 28.2775 15.9831 29.8161 16.4059 31.4076C17.1985 34.9092 19.365 38.8881 22.7998 43.1854C20.6333 45.6259 18.6781 47.2705 16.7758 48.3316C15.4018 49.1274 14.0808 49.5518 12.7597 49.711C11.333 49.8701 9.95907 49.6579 8.74369 49.1804C6.1544 48.1194 4.30491 45.732 3.93502 42.9732C3.77649 41.6469 3.88217 40.3206 4.4106 38.8351C4.56913 38.3045 4.83334 37.774 5.09755 37.1374C5.46745 36.2885 5.89019 35.3866 6.31293 34.4847L6.36577 34.3786C10.0119 26.4737 13.9223 18.4097 17.9911 10.5578L18.1497 10.2395C18.5724 9.44369 18.9951 8.59484 19.4179 7.79904C19.8406 6.95019 20.3162 6.1544 20.8975 5.46471C22.0072 4.19144 23.4868 3.50175 25.1249 3.50175C26.763 3.50175 28.2426 4.19144 29.3523 5.46471C29.9335 6.1544 30.4091 6.95019 30.8319 7.79904C31.2546 8.59484 31.6773 9.44369 32.1001 10.2395L32.2586 10.5578C36.2746 18.4627 40.185 26.5268 43.8311 34.4317V34.4847C44.2539 35.3336 44.6238 36.2885 45.0465 37.1374C45.3107 37.774 45.5749 38.3045 45.7335 38.8351C46.1562 40.2145 46.3147 41.5408 46.1034 42.9202Z" fill="#FF385C"/>
</g>
<defs>
<clipPath id="clip0_1_405">
<rect width="169.149" height="53" fill="white" transform="translate(0.5)"/>
</clipPath>
</defs>
</svg>
