<svg width="183" height="44" viewBox="0 0 183 44" fill="none" xmlns="http://www.w3.org/2000/svg">
<g id="Descript svg" clip-path="url(#clip0_1_392)">
<g id="Page-1">
<g id="Artboard">
<g id="Group-3">
<g id="Group-4">
<path id="D-Copy" fill-rule="evenodd" clip-rule="evenodd" d="M0.5 39.1714C0.5 41.5531 2.01163 43.0733 4.37984 43.0733H15.6667C22.4186 43.0733 27.9109 40.793 31.6395 36.7897H0.5V39.1714ZM15.6667 0H4.37984C2.01163 0 0.5 1.52024 0.5 3.90194V6.33431H31.6395C27.8605 2.28035 22.3682 0 15.6667 0ZM25.4922 27.6683C25.4922 29.5939 26.7015 30.8101 28.6163 30.8101H35.3682C36.124 28.8845 36.6279 26.8068 36.8798 24.5265H28.6163C26.7015 24.5265 25.4922 25.7933 25.4922 27.6683ZM16.1202 15.4051C16.1202 17.3307 17.3295 18.5469 19.2442 18.5469H36.8798C36.6279 16.2665 36.124 14.1889 35.3682 12.2632H19.2442C17.3295 12.2632 16.1202 13.5301 16.1202 15.4051ZM19.2442 27.6683C19.2442 25.7427 18.0349 24.5265 16.1202 24.5265H0.5V30.8101H16.1202C18.0349 30.8101 19.2442 29.5939 19.2442 27.6683ZM9.87209 15.4051C9.87209 13.4794 8.66279 12.2632 6.74806 12.2632H0.5V18.5469H6.74806C8.66279 18.5469 9.87209 17.3307 9.87209 15.4051Z" fill="#0062FF"/>
<g id="logo">
<g id="Group">
<path id="Fill-4" fill-rule="evenodd" clip-rule="evenodd" d="M79.9108 20.878C80.4147 18.395 82.0271 17.1788 84.1938 17.1788C86.3101 17.1788 87.8721 18.4963 88.3256 20.878H79.9108ZM84.2442 12.9221C78.8023 12.9221 75.4263 17.2801 75.4263 22.6516C75.4263 28.1751 79.0542 32.3305 84.3953 32.3305C88.0736 32.3305 90.3411 30.6075 91.7519 28.4285L88.2752 26.1988C87.4186 27.415 86.0077 28.0231 84.5465 28.0231C82.1279 28.0231 80.4651 26.8576 79.9108 24.5773H89.031H92.3566C92.5077 23.9692 92.5581 23.3611 92.5581 22.6516C92.6085 17.9896 89.7364 12.9221 84.2442 12.9221Z" fill="#0062FF"/>
<path id="Fill-6" fill-rule="evenodd" clip-rule="evenodd" d="M61.5194 27.9723C58.1938 27.9723 56.1783 25.5399 56.1783 22.6008C56.1783 19.611 58.2442 17.2293 61.5194 17.2293C64.7945 17.2293 66.8604 19.6617 66.8604 22.6008C66.9108 25.5906 64.8953 27.9723 61.5194 27.9723ZM66.5077 15.7598C65.1976 14.1382 63.2829 13.1754 60.9147 13.1754C55.6744 13.1754 51.8953 17.432 51.8953 22.7528C51.8953 28.023 55.624 32.3303 60.9147 32.3303C63.2829 32.3303 65.1473 31.3168 66.5077 29.7459V31.8743H71.1434V6.48633H66.5077V15.7598Z" fill="#0062FF"/>
<path id="Combined-Shape" fill-rule="evenodd" clip-rule="evenodd" d="M106.818 22.2969C108.078 23.1583 108.884 24.5265 108.884 26.2495C108.884 29.7967 106.516 32.2291 102.081 32.2291C97.8992 32.2291 95.6822 30.0501 94.7752 27.9217L98.6047 25.6921C98.6047 25.6921 99.1085 28.0231 102.031 28.0231C103.845 28.0231 104.349 27.2123 104.349 26.5028C104.349 26.1988 104.248 25.5907 102.988 25.084C100.419 24.0705 95.4806 23.6144 95.4806 18.9523C95.4806 15.1518 98.4535 13.1248 102.081 13.1248C105.508 13.1248 107.674 15.2531 108.531 16.9254L104.802 19.155C104.802 19.155 104.097 17.3308 102.132 17.3308C100.167 17.3308 100.016 18.4456 100.016 18.8003C100.016 19.7631 100.973 20.1179 103.039 20.7766C104.248 21.0807 105.508 21.4354 106.818 22.2969ZM182.5 18.1416H178.62V25.6414C178.62 27.9724 180.888 27.4657 182.5 27.4657V31.7223C182.5 31.7223 181.643 31.8743 180.182 31.8743C176.857 31.8743 174.186 30.8609 174.186 25.6414V18.1416H171.213V13.6822H174.186V8.61475H178.62V13.6822H182.5V18.1416ZM119.919 27.719C121.783 27.719 123.194 26.8069 123.899 25.2867L127.729 27.6177C126.217 30.4048 123.395 32.3304 119.919 32.3304C114.578 32.3304 110.899 28.0738 110.899 22.8036C110.899 17.5335 114.628 13.2768 119.919 13.2768C123.395 13.2768 126.167 15.2024 127.678 17.9389L123.849 20.3206C123.143 18.8003 121.733 17.8882 119.919 17.8882C117.248 17.8882 115.333 20.1179 115.333 22.8543C115.283 25.4894 117.198 27.719 119.919 27.719Z" fill="#0062FF"/>
<path id="Combined-Shape_1_" fill-rule="evenodd" clip-rule="evenodd" d="M160.733 27.6683C157.86 27.6683 156.097 25.3879 156.097 22.6008C156.097 19.8137 157.86 17.5334 160.733 17.5334C163.605 17.5334 165.368 19.8137 165.368 22.6008C165.368 25.3879 163.605 27.6683 160.733 27.6683ZM161.287 13.1247C166.174 13.1247 169.702 17.3813 169.702 22.6008C169.702 27.8203 166.225 32.077 161.287 32.077C159.12 32.077 157.357 31.1141 156.097 29.4926V38.766H151.764V13.6314H156.097V15.7091C157.357 14.0875 159.12 13.1247 161.287 13.1247ZM143.5 31.6209V13.6314H147.833V31.6209H143.5ZM135.438 16.7226C136.295 14.5436 137.957 13.2767 140.527 13.2767V18.4455C137.554 18.1415 135.388 19.7631 135.438 23.513V31.6209H131.105V13.6314H135.438V16.7226ZM143.5 11.2497V6.48633H147.934V11.3004H143.5V11.2497Z" fill="#0062FF"/>
</g>
</g>
</g>
</g>
</g>
</g>
</g>
<defs>
<clipPath id="clip0_1_392">
<rect width="182" height="43.0733" fill="white" transform="translate(0.5)"/>
</clipPath>
</defs>
</svg>
