<svg width="138" height="46" viewBox="0 0 138 46" fill="none" xmlns="http://www.w3.org/2000/svg">
<g id="Google Logo" clip-path="url(#clip0_1_262)">
<path id="Vector" d="M58.8005 23.59C58.8005 29.975 53.7687 34.68 47.5937 34.68C41.4186 34.68 36.3869 29.975 36.3869 23.59C36.3869 17.16 41.4186 12.5 47.5937 12.5C53.7687 12.5 58.8005 17.16 58.8005 23.59ZM53.8946 23.59C53.8946 19.6 50.9784 16.87 47.5937 16.87C44.209 16.87 41.2927 19.6 41.2927 23.59C41.2927 27.54 44.209 30.31 47.5937 30.31C50.9784 30.31 53.8946 27.535 53.8946 23.59Z" fill="#EA4335"/>
<path id="Vector_2" d="M82.9769 23.59C82.9769 29.975 77.9452 34.68 71.7701 34.68C65.5951 34.68 60.5633 29.975 60.5633 23.59C60.5633 17.165 65.5951 12.5 71.7701 12.5C77.9452 12.5 82.9769 17.16 82.9769 23.59ZM78.0711 23.59C78.0711 19.6 75.1548 16.87 71.7701 16.87C68.3854 16.87 65.4691 19.6 65.4691 23.59C65.4691 27.54 68.3854 30.31 71.7701 30.31C75.1548 30.31 78.0711 27.535 78.0711 23.59Z" fill="#FBBC05"/>
<path id="Vector_3" d="M106.146 13.17V33.08C106.146 41.27 101.281 44.615 95.5285 44.615C90.114 44.615 86.8552 41.02 85.6263 38.08L89.8974 36.315C90.658 38.12 92.5216 40.25 95.5235 40.25C99.2054 40.25 101.487 37.995 101.487 33.75V32.155H101.316C100.218 33.5 98.1023 34.675 95.4328 34.675C89.8471 34.675 84.7297 29.845 84.7297 23.63C84.7297 17.37 89.8471 12.5 95.4328 12.5C98.0973 12.5 100.213 13.675 101.316 14.98H101.487V13.175H106.146V13.17ZM101.835 23.63C101.835 19.725 99.2104 16.87 95.8711 16.87C92.4863 16.87 89.6506 19.725 89.6506 23.63C89.6506 27.495 92.4863 30.31 95.8711 30.31C99.2104 30.31 101.835 27.495 101.835 23.63Z" fill="#4285F4"/>
<path id="Vector_4" d="M113.827 1.5V34H109.042V1.5H113.827Z" fill="#34A853"/>
<path id="Vector_5" d="M132.473 27.24L136.281 29.76C135.052 31.565 132.091 34.675 126.973 34.675C120.627 34.675 115.887 29.805 115.887 23.585C115.887 16.99 120.667 12.495 126.424 12.495C132.222 12.495 135.057 17.075 135.984 19.55L136.493 20.81L121.559 26.95C122.702 29.175 124.48 30.31 126.973 30.31C129.472 30.31 131.204 29.09 132.473 27.24ZM120.753 23.25L130.736 19.135C130.187 17.75 128.535 16.785 126.591 16.785C124.097 16.785 120.627 18.97 120.753 23.25Z" fill="#EA4335"/>
<path id="Vector_6" d="M18.2749 20.705V16H34.2465C34.4026 16.82 34.4832 17.79 34.4832 18.84C34.4832 22.37 33.5111 26.735 30.3782 29.845C27.331 32.995 23.4376 34.675 18.2799 34.675C8.72016 34.675 0.68148 26.945 0.68148 17.455C0.68148 7.96498 8.72016 0.234985 18.2799 0.234985C23.5685 0.234985 27.336 2.29499 30.1667 4.97999L26.8223 8.29999C24.7925 6.40999 22.0424 4.93999 18.2749 4.93999C11.2939 4.93999 5.83409 10.525 5.83409 17.455C5.83409 24.385 11.2939 29.97 18.2749 29.97C22.803 29.97 25.3818 28.165 27.0338 26.525C28.3736 25.195 29.255 23.295 29.6026 20.7L18.2749 20.705Z" fill="#4285F4"/>
</g>
<defs>
<clipPath id="clip0_1_262">
<rect width="137" height="46" fill="white" transform="translate(0.5)"/>
</clipPath>
</defs>
</svg>
