<svg width="186" height="44" viewBox="0 0 186 44" fill="none" xmlns="http://www.w3.org/2000/svg">
<g id="Grammarly svg" clip-path="url(#clip0_1_277)">
<g id="g10">
<g id="g12">
<g id="g14">
<g id="Clip path group">
<mask id="mask0_1_277" style="mask-type:luminance" maskUnits="userSpaceOnUse" x="55" y="14" width="16" height="19">
<g id="clipPath20">
<path id="path18" d="M57.267 31.9037C56.5897 31.644 56.1466 31.0962 56.1466 30.366C56.1466 29.4803 56.8758 28.7511 57.762 28.7511C58.0223 28.7511 58.2303 28.8029 58.4131 28.8809C59.5596 29.4023 60.7838 29.7148 62.2692 29.7148C64.9783 29.7148 66.2553 28.4122 66.2553 25.9098V25.2323C65.0821 26.6401 63.8065 27.4994 61.6962 27.4994C58.4393 27.4994 55.4946 25.1279 55.4946 20.9841V20.9323C55.4946 16.7623 58.4911 14.417 61.6962 14.417C63.8579 14.417 65.1349 15.329 66.2025 16.5016V16.4754C66.2025 15.4072 67.0887 14.5215 68.1829 14.5215C69.2771 14.5215 70.1619 15.4072 70.1619 16.5016V25.493C70.1619 27.9954 69.5641 29.8193 68.3909 30.9917C67.0887 32.2952 65.0821 32.8684 62.3734 32.8684C60.523 32.8684 58.9081 32.5559 57.267 31.9037ZM66.2553 20.9841V20.9323C66.2553 19.0295 64.7699 17.7007 62.8423 17.7007C60.9146 17.7007 59.4554 19.0295 59.4554 20.9323V20.9841C59.4554 22.9124 60.9146 24.2159 62.8423 24.2159C64.7699 24.2159 66.2553 22.887 66.2553 20.9841Z" fill="white"/>
</g>
</mask>
<g mask="url(#mask0_1_277)">
<g id="g16">
<g id="Clip path group_2">
<mask id="mask1_1_277" style="mask-type:luminance" maskUnits="userSpaceOnUse" x="0" y="0" width="186" height="44">
<g id="clipPath26">
<path id="path24" d="M0.499969 43.2906H185.5V-2.67029e-05H0.499969V43.2906Z" fill="white"/>
</g>
</mask>
<g mask="url(#mask1_1_277)">
<g id="g22">
<path id="path28" d="M50.9824 37.3776H74.6741V9.90729H50.9824V37.3776Z" fill="#4B4B4B"/>
</g>
</g>
</g>
</g>
</g>
</g>
</g>
<g id="g30">
<g id="Clip path group_3">
<mask id="mask2_1_277" style="mask-type:luminance" maskUnits="userSpaceOnUse" x="72" y="14" width="9" height="15">
<g id="clipPath36">
<path id="path34" d="M72.4041 16.5013C72.4041 15.4069 73.2893 14.5212 74.3845 14.5212C75.4782 14.5212 76.3635 15.4069 76.3635 16.5013V17.1263C76.9375 15.7721 77.8746 14.5212 79.0478 14.5212C80.2724 14.5212 80.975 15.3287 80.975 16.4487C80.975 17.4915 80.2977 18.1173 79.4909 18.2998C77.4839 18.7695 76.3635 20.3062 76.3635 23.1211V26.8214C76.3635 27.9161 75.4782 28.8026 74.3845 28.8026C73.2893 28.8026 72.4041 27.9161 72.4041 26.8214V16.5013Z" fill="white"/>
</g>
</mask>
<g mask="url(#mask2_1_277)">
<g id="g32">
<g id="Clip path group_4">
<mask id="mask3_1_277" style="mask-type:luminance" maskUnits="userSpaceOnUse" x="0" y="0" width="186" height="44">
<g id="clipPath42">
<path id="path40" d="M0.499939 43.2908H185.5V9.53674e-05H0.499939V43.2908Z" fill="white"/>
</g>
</mask>
<g mask="url(#mask3_1_277)">
<g id="g38">
<path id="path44" d="M67.8919 33.3119H85.4875V10.0116H67.8919V33.3119Z" fill="#4B4B4B"/>
</g>
</g>
</g>
</g>
</g>
</g>
</g>
<g id="g46">
<g id="Clip path group_5">
<mask id="mask4_1_277" style="mask-type:luminance" maskUnits="userSpaceOnUse" x="80" y="14" width="14" height="15">
<g id="clipPath52">
<path id="path50" d="M80.5066 24.6323V24.5807C80.5066 21.5315 82.825 20.1236 86.1342 20.1236C87.5407 20.1236 88.5568 20.3578 89.5472 20.6968V20.4623C89.5472 18.8211 88.5306 17.9081 86.5511 17.9081C85.4569 17.9081 84.5707 18.0654 83.8154 18.2997C83.5812 18.3777 83.4251 18.4042 83.2423 18.4042C82.3309 18.4042 81.6008 17.7003 81.6008 16.7873C81.6008 16.0845 82.043 15.4848 82.6693 15.2497C83.9196 14.7809 85.2746 14.5211 87.1242 14.5211C89.286 14.5211 90.8494 15.0943 91.839 16.0845C92.8817 17.1262 93.351 18.6648 93.351 20.5414V26.8995C93.351 27.9686 92.491 28.8025 91.4225 28.8025C90.2764 28.8025 89.5211 27.995 89.5211 27.1602V27.1338C88.5568 28.2029 87.2284 28.9059 85.2999 28.9059C82.6693 28.9059 80.5066 27.3954 80.5066 24.6323ZM89.5991 23.7204V23.0165C88.9218 22.704 88.0365 22.4951 87.0714 22.4951C85.378 22.4951 84.3365 23.1727 84.3365 24.4244V24.4762C84.3365 25.5453 85.2227 26.1701 86.4983 26.1701C88.3488 26.1701 89.5991 25.1537 89.5991 23.7204Z" fill="white"/>
</g>
</mask>
<g mask="url(#mask4_1_277)">
<g id="g48">
<g id="Clip path group_6">
<mask id="mask5_1_277" style="mask-type:luminance" maskUnits="userSpaceOnUse" x="0" y="0" width="186" height="44">
<g id="clipPath58">
<path id="path56" d="M0.499939 43.291H185.5V0.000339508H0.499939V43.291Z" fill="white"/>
</g>
</mask>
<g mask="url(#mask5_1_277)">
<g id="g54">
<path id="path60" d="M75.9944 33.4154H97.863V10.0117H75.9944V33.4154Z" fill="#4B4B4B"/>
</g>
</g>
</g>
</g>
</g>
</g>
</g>
<g id="g62">
<g id="Clip path group_7">
<mask id="mask6_1_277" style="mask-type:luminance" maskUnits="userSpaceOnUse" x="95" y="14" width="22" height="15">
<g id="clipPath68">
<path id="path66" d="M95.4618 16.5013C95.4618 15.4069 96.3471 14.5212 97.4422 14.5212C98.5364 14.5212 99.4226 15.4069 99.4226 16.5013V16.6586C100.333 15.485 101.532 14.4168 103.538 14.4168C105.362 14.4168 106.743 15.2242 107.471 16.6322C108.697 15.1989 110.156 14.4168 112.057 14.4168C115.001 14.4168 116.773 16.189 116.773 19.5515V26.8214C116.773 27.9161 115.887 28.8026 114.792 28.8026C113.699 28.8026 112.813 27.9161 112.813 26.8214V20.854C112.813 18.9775 111.979 18.0129 110.494 18.0129C109.009 18.0129 108.097 18.9775 108.097 20.854V26.8214C108.097 27.9161 107.212 28.8026 106.117 28.8026C105.023 28.8026 104.136 27.9161 104.136 26.8214V20.854C104.136 18.9775 103.304 18.0129 101.819 18.0129C100.333 18.0129 99.4226 18.9775 99.4226 20.854V26.8214C99.4226 27.9161 98.5364 28.8026 97.4422 28.8026C96.3471 28.8026 95.4618 27.9161 95.4618 26.8214V16.5013Z" fill="white"/>
</g>
</mask>
<g mask="url(#mask6_1_277)">
<g id="g64">
<g id="Clip path group_8">
<mask id="mask7_1_277" style="mask-type:luminance" maskUnits="userSpaceOnUse" x="0" y="0" width="186" height="44">
<g id="clipPath74">
<path id="path72" d="M0.499939 43.2908H185.5V9.53674e-05H0.499939V43.2908Z" fill="white"/>
</g>
</mask>
<g mask="url(#mask7_1_277)">
<g id="g70">
<path id="path76" d="M90.9496 33.3119H121.285V9.90715H90.9496V33.3119Z" fill="#4B4B4B"/>
</g>
</g>
</g>
</g>
</g>
</g>
</g>
<g id="g78">
<g id="Clip path group_9">
<mask id="mask8_1_277" style="mask-type:luminance" maskUnits="userSpaceOnUse" x="118" y="14" width="23" height="15">
<g id="clipPath84">
<path id="path82" d="M118.91 16.5013C118.91 15.4069 119.796 14.5212 120.891 14.5212C121.985 14.5212 122.871 15.4069 122.871 16.5013V16.6586C123.782 15.485 124.981 14.4168 126.987 14.4168C128.81 14.4168 130.191 15.2242 130.92 16.6322C132.145 15.1989 133.604 14.4168 135.505 14.4168C138.45 14.4168 140.221 16.189 140.221 19.5515V26.8214C140.221 27.9161 139.336 28.8026 138.241 28.8026C137.147 28.8026 136.261 27.9161 136.261 26.8214V20.854C136.261 18.9775 135.427 18.0129 133.943 18.0129C132.457 18.0129 131.545 18.9775 131.545 20.854V26.8214C131.545 27.9161 130.661 28.8026 129.565 28.8026C128.471 28.8026 127.586 27.9161 127.586 26.8214V20.854C127.586 18.9775 126.753 18.0129 125.267 18.0129C123.782 18.0129 122.871 18.9775 122.871 20.854V26.8214C122.871 27.9161 121.985 28.8026 120.891 28.8026C119.796 28.8026 118.91 27.9161 118.91 26.8214V16.5013Z" fill="white"/>
</g>
</mask>
<g mask="url(#mask8_1_277)">
<g id="g80">
<g id="Clip path group_10">
<mask id="mask9_1_277" style="mask-type:luminance" maskUnits="userSpaceOnUse" x="0" y="0" width="186" height="44">
<g id="clipPath90">
<path id="path88" d="M0.499939 43.2908H185.5V9.53674e-05H0.499939V43.2908Z" fill="white"/>
</g>
</mask>
<g mask="url(#mask9_1_277)">
<g id="g86">
<path id="path92" d="M114.398 33.3118H144.734V9.90702H114.398V33.3118Z" fill="#4B4B4B"/>
</g>
</g>
</g>
</g>
</g>
</g>
</g>
<g id="g94">
<g id="Clip path group_11">
<mask id="mask10_1_277" style="mask-type:luminance" maskUnits="userSpaceOnUse" x="141" y="14" width="14" height="15">
<g id="clipPath100">
<path id="path98" d="M141.525 24.6323V24.5807C141.525 21.5315 143.844 20.1236 147.152 20.1236C148.559 20.1236 149.575 20.3578 150.565 20.6968V20.4623C150.565 18.8211 149.55 17.9081 147.569 17.9081C146.474 17.9081 145.589 18.0654 144.834 18.2997C144.6 18.3777 144.443 18.4042 144.261 18.4042C143.348 18.4042 142.619 17.7003 142.619 16.7873C142.619 16.0845 143.062 15.4848 143.687 15.2497C144.938 14.7809 146.293 14.5211 148.143 14.5211C150.305 14.5211 151.868 15.0943 152.857 16.0845C153.9 17.1262 154.369 18.6648 154.369 20.5414V26.8995C154.369 27.9686 153.509 28.8025 152.442 28.8025C151.295 28.8025 150.539 27.995 150.539 27.1602V27.1338C149.575 28.2029 148.246 28.9059 146.319 28.9059C143.687 28.9059 141.525 27.3954 141.525 24.6323ZM150.618 23.7204V23.0165C149.94 22.704 149.054 22.4951 148.091 22.4951C146.396 22.4951 145.355 23.1727 145.355 24.4244V24.4762C145.355 25.5453 146.24 26.1701 147.517 26.1701C149.366 26.1701 150.618 25.1537 150.618 23.7204Z" fill="white"/>
</g>
</mask>
<g mask="url(#mask10_1_277)">
<g id="g96">
<g id="Clip path group_12">
<mask id="mask11_1_277" style="mask-type:luminance" maskUnits="userSpaceOnUse" x="0" y="0" width="186" height="44">
<g id="clipPath106">
<path id="path104" d="M0.499939 43.291H185.5V0.000339508H0.499939V43.291Z" fill="white"/>
</g>
</mask>
<g mask="url(#mask11_1_277)">
<g id="g102">
<path id="path108" d="M137.013 33.4154H158.881V10.0117H137.013V33.4154Z" fill="#4B4B4B"/>
</g>
</g>
</g>
</g>
</g>
</g>
</g>
<g id="g110">
<g id="Clip path group_13">
<mask id="mask12_1_277" style="mask-type:luminance" maskUnits="userSpaceOnUse" x="156" y="14" width="10" height="15">
<g id="clipPath116">
<path id="path114" d="M156.479 16.5013C156.479 15.4069 157.366 14.5212 158.46 14.5212C159.555 14.5212 160.44 15.4069 160.44 16.5013V17.1263C161.013 15.7721 161.951 14.5212 163.124 14.5212C164.348 14.5212 165.051 15.3287 165.051 16.4487C165.051 17.4915 164.373 18.1173 163.566 18.2998C161.561 18.7695 160.44 20.3062 160.44 23.1211V26.8214C160.44 27.9161 159.555 28.8026 158.46 28.8026C157.366 28.8026 156.479 27.9161 156.479 26.8214V16.5013Z" fill="white"/>
</g>
</mask>
<g mask="url(#mask12_1_277)">
<g id="g112">
<g id="Clip path group_14">
<mask id="mask13_1_277" style="mask-type:luminance" maskUnits="userSpaceOnUse" x="0" y="0" width="186" height="44">
<g id="clipPath122">
<path id="path120" d="M0.5 43.2908H185.5V9.53674e-05H0.5V43.2908Z" fill="white"/>
</g>
</mask>
<g mask="url(#mask13_1_277)">
<g id="g118">
<path id="path124" d="M151.967 33.3119H169.563V10.0116H151.967V33.3119Z" fill="#4B4B4B"/>
</g>
</g>
</g>
</g>
</g>
</g>
</g>
<g id="g126">
<g id="Clip path group_15">
<mask id="mask14_1_277" style="mask-type:luminance" maskUnits="userSpaceOnUse" x="166" y="9" width="5" height="20">
<g id="clipPath132">
<path id="path130" d="M166.25 11.4448C166.25 10.3503 167.135 9.46485 168.23 9.46485C169.325 9.46485 170.211 10.3503 170.211 11.4448V26.8214C170.211 27.9161 169.325 28.8026 168.23 28.8026C167.135 28.8026 166.25 27.9161 166.25 26.8214V11.4448Z" fill="white"/>
</g>
</mask>
<g mask="url(#mask14_1_277)">
<g id="g128">
<g id="Clip path group_16">
<mask id="mask15_1_277" style="mask-type:luminance" maskUnits="userSpaceOnUse" x="0" y="0" width="186" height="44">
<g id="clipPath138">
<path id="path136" d="M0.499939 43.2908H185.5V9.53674e-05H0.499939V43.2908Z" fill="white"/>
</g>
</mask>
<g mask="url(#mask15_1_277)">
<g id="g134">
<path id="path140" d="M161.738 33.3119H174.723V4.95523H161.738V33.3119Z" fill="#4B4B4B"/>
</g>
</g>
</g>
</g>
</g>
</g>
</g>
<g id="g142">
<g id="Clip path group_17">
<mask id="mask16_1_277" style="mask-type:luminance" maskUnits="userSpaceOnUse" x="171" y="14" width="15" height="19">
<g id="clipPath148">
<path id="path146" d="M173.363 32.5291C172.789 32.3213 172.112 31.8517 172.112 30.8879C172.112 29.9233 172.868 29.271 173.676 29.271C173.988 29.271 174.17 29.3237 174.327 29.3755C174.665 29.48 174.874 29.5326 175.161 29.5326C175.864 29.5326 176.203 29.4019 176.568 28.698L176.697 28.3856L171.93 17.3351C171.826 17.0744 171.722 16.6839 171.722 16.4232C171.722 15.3024 172.582 14.5211 173.676 14.5211C174.665 14.5211 175.238 15.0679 175.577 16.0054L178.6 24.1373L181.517 16.0316C181.83 15.1988 182.402 14.5211 183.419 14.5211C184.435 14.5211 185.294 15.3024 185.294 16.345C185.294 16.6585 185.19 17.1009 185.112 17.2834L180.24 28.985C179.068 31.8252 177.896 32.8943 175.525 32.8943C174.639 32.8943 174.014 32.7645 173.363 32.5291Z" fill="white"/>
</g>
</mask>
<g mask="url(#mask16_1_277)">
<g id="g144">
<g id="Clip path group_18">
<mask id="mask17_1_277" style="mask-type:luminance" maskUnits="userSpaceOnUse" x="0" y="0" width="186" height="44">
<g id="clipPath154">
<path id="path152" d="M0.5 43.2906H185.5V-2.67029e-05H0.5V43.2906Z" fill="white"/>
</g>
</mask>
<g mask="url(#mask17_1_277)">
<g id="g150">
<path id="path156" d="M167.209 37.4034H189.806V10.0114H167.209V37.4034Z" fill="#4B4B4B"/>
</g>
</g>
</g>
</g>
</g>
</g>
</g>
<g id="g158">
<g id="Clip path group_19">
<mask id="mask18_1_277" style="mask-type:luminance" maskUnits="userSpaceOnUse" x="1" y="0" width="44" height="44">
<g id="clipPath164">
<path id="path162" d="M44.5369 21.6457C44.5369 33.5996 34.85 43.291 22.8995 43.291C10.9499 43.291 1.26193 33.5996 1.26193 21.6457C1.26193 9.69091 10.9499 0.000339508 22.8995 0.000339508C34.85 0.000339508 44.5369 9.69091 44.5369 21.6457Z" fill="white"/>
</g>
</mask>
<g mask="url(#mask18_1_277)">
<g id="g160">
<g id="Clip path group_20">
<mask id="mask19_1_277" style="mask-type:luminance" maskUnits="userSpaceOnUse" x="0" y="0" width="186" height="44">
<g id="clipPath170">
<path id="path168" d="M0.499969 43.2909H185.5V0.000217438H0.499969V43.2909Z" fill="white"/>
</g>
</mask>
<g mask="url(#mask19_1_277)">
<g id="g166">
<path id="path172" d="M0.499969 43.2909H49.0489V-4.50923H0.499969V43.2909Z" fill="#17C399"/>
</g>
</g>
</g>
</g>
</g>
</g>
</g>
<g id="g174">
<g id="Clip path group_21">
<mask id="mask20_1_277" style="mask-type:luminance" maskUnits="userSpaceOnUse" x="10" y="8" width="26" height="27">
<g id="clipPath180">
<path id="path178" d="M25.7274 26.319C25.8554 27.0276 26.5214 27.5132 27.2411 27.5132H29.5083L30.8225 27.3288C28.7199 30.4146 25.0689 31.8347 21.0772 31.208C17.8279 30.698 15.0367 28.4986 13.8587 25.4269C11.1851 18.4542 16.2756 11.797 22.9089 11.797C26.3661 11.797 29.3987 13.82 31.1357 16.2662C31.6366 16.9716 32.513 17.1753 33.179 16.7131C33.8113 16.2747 33.9956 15.4419 33.6156 14.7867C31.2109 11.0318 26.8901 8.62908 22.0311 8.95475C15.7045 9.37909 10.5849 14.5581 10.2208 20.8907C9.79845 28.2596 15.6414 34.276 22.9089 34.276C26.7264 34.276 30.1442 32.6131 32.4726 29.9225L32.1969 31.4659V32.8606C32.1969 33.5797 32.6815 34.2469 33.3898 34.3748C34.3203 34.5423 35.1293 33.8317 35.1293 32.9321V24.5789H27.1686C26.2692 24.5789 25.5589 25.3892 25.7274 26.319Z" fill="white"/>
</g>
</mask>
<g mask="url(#mask20_1_277)">
<g id="g176">
<g id="Clip path group_22">
<mask id="mask21_1_277" style="mask-type:luminance" maskUnits="userSpaceOnUse" x="0" y="0" width="186" height="44">
<g id="clipPath186">
<path id="path184" d="M0.500031 43.2909H185.5V0.000217438H0.500031V43.2909Z" fill="white"/>
</g>
</mask>
<g mask="url(#mask21_1_277)">
<g id="g182">
<path id="path188" d="M5.6871 38.9088H39.6416V4.41579H5.6871V38.9088Z" fill="white"/>
</g>
</g>
</g>
</g>
</g>
</g>
</g>
</g>
</g>
</g>
<defs>
<clipPath id="clip0_1_277">
<rect width="185" height="43.2907" fill="white" transform="translate(0.5 0.00012207)"/>
</clipPath>
</defs>
</svg>
