<svg width="191" height="32" viewBox="0 0 191 32" fill="none" xmlns="http://www.w3.org/2000/svg">
<g clip-path="url(#clip0_1_408)">
<path d="M30.5974 15.7798C30.5974 19.1115 29.7198 21.9889 27.9947 24.4422C26.5694 26.4915 24.6677 28.1633 22.4533 29.3135C20.239 30.4638 17.7784 31.058 15.2835 31.045C10.8346 31.045 7.14236 29.4397 4.23696 26.2595C1.42235 23.3216 -8.74198e-05 19.6567 -8.74198e-05 15.2044C-0.0148849 13.1972 0.380143 11.2082 1.16077 9.3593C1.9414 7.51038 3.09118 5.84052 4.53961 4.45212C5.95372 3.01068 7.64635 1.87253 9.51431 1.10707C11.3823 0.341601 13.3864 -0.0351486 15.4046 -0.000216615C21.7904 -0.000216615 27.3289 3.93723 29.7198 10.328H21.4273C19.5811 8.38957 17.6442 7.39006 15.3743 7.39006C13.3084 7.40591 11.3315 8.23429 9.87055 9.69633C8.40964 11.1584 7.5819 13.1368 7.56607 15.2044C7.56607 19.9899 11.2281 23.5336 15.3743 23.5336C18.1889 23.5336 20.5799 22.1403 22.0931 19.5356H13.4979V13.5385H30.5369C30.5066 14.4775 30.5974 15.2649 30.5974 15.7798Z" fill="#230F33"/>
<path d="M32.4437 30.6512V0.787231H42.3099C45.4575 0.787231 47.8484 0.999248 49.9064 2.3925C52.5091 4.24007 53.9013 7.05685 53.9013 10.7217C53.9013 15.5072 51.4196 19.2024 47.1825 20.3836L54.446 30.5906H45.4575L39.7072 20.9591V30.6209H32.4437V30.6512ZM41.0993 14.5986C44.7008 14.5986 46.5167 13.5991 46.5167 10.9943C46.5167 8.51068 45.0035 7.51117 41.7349 7.51117H39.6769V14.5683L41.0993 14.5986Z" fill="#230F33"/>
<path d="M59.5608 4.60356C62.4965 1.66562 66.1585 0.272369 70.4258 0.272369C72.41 0.255689 74.3769 0.641619 76.2079 1.40686C78.0389 2.17209 79.6959 3.30076 81.0789 4.72471C82.5518 6.12626 83.7245 7.81292 84.5257 9.68215C85.3269 11.5514 85.7399 13.5642 85.7397 15.5981C85.7397 19.8384 84.2265 23.7456 81.4119 26.5321C80.0032 28.0119 78.3078 29.1888 76.4293 29.9908C74.5508 30.7927 72.5286 31.203 70.4863 31.1964C66.0374 31.1964 62.3451 29.5912 59.4397 26.5321C56.6251 23.5941 55.2027 19.9293 55.2027 15.477C55.0211 11.3275 56.6251 7.5415 59.5608 4.60356ZM70.4258 23.8062C74.6628 23.8062 78.2341 20.323 78.2341 15.477C78.2341 13.4005 77.4098 11.409 75.9426 9.9407C74.4755 8.47239 72.4856 7.6475 70.4107 7.6475C68.3358 7.6475 66.3459 8.47239 64.8787 9.9407C63.4115 11.409 62.5873 13.4005 62.5873 15.477C62.4965 20.2625 66.2795 23.8062 70.4258 23.8062Z" fill="#230F33"/>
<path d="M94.9401 0.787231V19.1115C94.9401 22.4432 95.9994 24.2302 98.4205 24.2302C101.023 24.2302 102.204 22.6249 102.204 19.1115V0.787231H109.467V19.4447C109.467 26.7138 105.018 31.045 98.4205 31.045C91.7018 31.045 87.5555 26.9258 87.5555 19.4447V0.787231H94.9401Z" fill="#230F33"/>
<path d="M111.646 30.6512V0.787231H121.512C124.66 0.787231 127.051 0.999248 129.109 2.3925C131.712 4.24007 133.104 7.05685 133.104 10.7217C133.104 14.6591 131.379 17.7788 128.322 19.6567C126.476 20.7168 124.085 20.9893 120.937 20.9893H118.879V30.6512H111.646ZM120.302 14.5986C123.903 14.5986 125.719 13.5991 125.719 10.9943C125.719 8.51068 124.206 7.51117 120.937 7.51117H119V14.5683L120.302 14.5986Z" fill="#230F33"/>
<path d="M138.642 4.60356C141.578 1.66562 145.24 0.272369 149.507 0.272369C151.491 0.255689 153.458 0.641619 155.289 1.40686C157.12 2.17209 158.777 3.30076 160.16 4.72471C161.633 6.12626 162.806 7.81292 163.607 9.68215C164.408 11.5514 164.821 13.5642 164.821 15.5981C164.821 19.8384 163.308 23.7456 160.493 26.5321C159.085 28.0119 157.389 29.1888 155.511 29.9908C153.632 30.7927 151.61 31.203 149.568 31.1964C145.119 31.1964 141.427 29.5912 138.521 26.5321C135.707 23.5941 134.284 19.9293 134.284 15.477C134.103 11.3275 135.707 7.5415 138.642 4.60356ZM149.477 23.8062C153.714 23.8062 157.285 20.323 157.285 15.477C157.285 13.4005 156.461 11.409 154.994 9.9407C153.527 8.47239 151.537 7.6475 149.462 7.6475C147.387 7.6475 145.397 8.47239 143.93 9.9407C142.463 11.409 141.638 13.4005 141.638 15.477C141.548 20.2625 145.361 23.8062 149.477 23.8062Z" fill="#230F33"/>
<path d="M166.213 30.6512V0.787231H172.811L183.736 17.3851V0.787231H191V30.6512H184.614L173.568 14.0534V30.6512H166.213Z" fill="#230F33"/>
</g>
<defs>
<clipPath id="clip0_1_408">
<rect width="191" height="31.1967" fill="white"/>
</clipPath>
</defs>
</svg>
