<svg width="165" height="35" viewBox="0 0 165 35" fill="none" xmlns="http://www.w3.org/2000/svg">
<g id="Microsoft Logo" clip-path="url(#clip0_1_270)">
<path id="Vector" d="M58.3887 20.1589L57.4112 22.9264H57.3298C57.1669 22.3023 56.8682 21.3527 56.3794 20.2132L51.139 7.05427H46.0073V28.0271H49.4013V15.0853C49.4013 14.2713 49.4013 13.3488 49.3741 12.2093C49.347 11.6395 49.2927 11.2054 49.2655 10.8798H49.347C49.5099 11.6938 49.7 12.2907 49.8357 12.6705L56.1351 27.9729H58.5245L64.7695 12.5349C64.9053 12.1822 65.041 11.4767 65.1768 10.8798H65.2583C65.1768 12.4264 65.1225 13.8101 65.0953 14.6512V27.9457H68.7066V7H63.7649L58.3887 20.1589ZM72.1278 12.9147H75.6576V27.9457H72.1278V12.9147ZM73.9198 6.56589C73.3225 6.56589 72.8337 6.78295 72.4265 7.16279C72.0192 7.54264 71.802 8.03101 71.802 8.62791C71.802 9.19768 72.0192 9.68605 72.4265 10.0659C72.8337 10.4457 73.3225 10.6357 73.9198 10.6357C74.5172 10.6357 75.0331 10.4186 75.4132 10.0659C75.8205 9.68605 76.0377 9.19768 76.0377 8.62791C76.0377 8.05814 75.8205 7.56977 75.4132 7.16279C75.0602 6.78295 74.5443 6.56589 73.9198 6.56589ZM88.1748 12.7791C87.5231 12.6434 86.8443 12.562 86.1927 12.562C84.5907 12.562 83.1245 12.9147 81.9026 13.6202C80.6808 14.3256 79.7033 15.3023 79.0788 16.5233C78.4271 17.7713 78.1013 19.2093 78.1013 20.8643C78.1013 22.3023 78.4271 23.5775 79.0516 24.7442C79.6761 25.8837 80.545 26.8062 81.7126 27.4302C82.8258 28.0543 84.1291 28.3798 85.5953 28.3798C87.2788 28.3798 88.7179 28.0271 89.8582 27.376L89.8854 27.3488V24.093L89.7496 24.2016C89.2337 24.5814 88.6364 24.907 88.039 25.0969C87.4145 25.314 86.8443 25.4225 86.3556 25.4225C84.9437 25.4225 83.8304 25.0155 83.043 24.1202C82.2285 23.2519 81.8212 22.0581 81.8212 20.5659C81.8212 19.0194 82.2285 17.7985 83.0702 16.9031C83.9119 16.0078 85.0251 15.5465 86.3828 15.5465C87.5231 15.5465 88.6907 15.9264 89.7496 16.6861L89.8854 16.7946V13.3488L89.8582 13.3217C89.3967 13.1318 88.8808 12.9147 88.1748 12.7791ZM99.8231 12.6705C98.9543 12.6705 98.1397 12.9419 97.4337 13.5116C96.8364 14 96.4291 14.7054 96.0761 15.5465H96.049V12.9147H92.5192V27.9457H96.049V20.2674C96.049 18.9651 96.3205 17.8798 96.9179 17.093C97.5152 16.2791 98.2755 15.8721 99.1986 15.8721C99.5245 15.8721 99.8503 15.9535 100.258 16.0078C100.638 16.1163 100.909 16.2248 101.099 16.3605L101.235 16.469V12.9419L101.154 12.9147C100.909 12.7519 100.42 12.6705 99.8231 12.6705ZM109.435 12.5892C106.964 12.5892 104.982 13.3217 103.597 14.7597C102.185 16.1977 101.507 18.1783 101.507 20.6744C101.507 23.0078 102.213 24.907 103.57 26.2907C104.928 27.6473 106.774 28.3527 109.082 28.3527C111.499 28.3527 113.426 27.6202 114.811 26.155C116.223 24.6899 116.902 22.7364 116.902 20.3217C116.902 17.9341 116.25 16.0349 114.92 14.6512C113.644 13.2674 111.77 12.5892 109.435 12.5892ZM112.259 24.1473C111.607 24.9884 110.575 25.3954 109.299 25.3954C108.023 25.3954 106.991 24.9884 106.258 24.093C105.525 23.2519 105.172 22.031 105.172 20.4845C105.172 18.8837 105.552 17.6628 106.258 16.7946C106.991 15.9264 107.996 15.4923 109.272 15.4923C110.521 15.4923 111.499 15.8992 112.205 16.7403C112.911 17.5814 113.291 18.8023 113.291 20.4031C113.236 22.031 112.938 23.3062 112.259 24.1473ZM124.776 19.155C123.663 18.6938 122.957 18.3411 122.631 18.0426C122.36 17.7713 122.224 17.3915 122.224 16.9031C122.224 16.4961 122.387 16.0891 122.794 15.8178C123.201 15.5465 123.663 15.4109 124.342 15.4109C124.939 15.4109 125.564 15.5194 126.161 15.6822C126.758 15.845 127.301 16.0892 127.736 16.4147L127.871 16.5233V13.2132L127.79 13.186C127.383 13.0233 126.84 12.8605 126.188 12.7248C125.536 12.6163 124.939 12.562 124.45 12.562C122.767 12.562 121.382 12.969 120.296 13.8643C119.21 14.7054 118.694 15.845 118.694 17.1744C118.694 17.8798 118.803 18.5039 119.047 19.0194C119.291 19.5349 119.644 20.0233 120.133 20.4302C120.622 20.8101 121.328 21.2442 122.305 21.6512C123.12 22.0039 123.744 22.2752 124.124 22.4923C124.505 22.7093 124.749 22.9535 124.939 23.1434C125.075 23.3605 125.156 23.6318 125.156 23.9845C125.156 24.9884 124.396 25.4767 122.848 25.4767C122.251 25.4767 121.626 25.3682 120.893 25.124C120.16 24.8798 119.481 24.5271 118.911 24.1202L118.775 24.0116V27.4574L118.857 27.4845C119.373 27.7287 119.997 27.8915 120.758 28.0814C121.518 28.2171 122.197 28.3256 122.794 28.3256C124.613 28.3256 126.107 27.9186 127.166 27.0233C128.252 26.155 128.822 25.0426 128.822 23.6047C128.822 22.6008 128.55 21.7054 127.953 21.0271C127.166 20.376 126.188 19.6977 124.776 19.155ZM138.135 12.5892C135.664 12.5892 133.682 13.3217 132.297 14.7597C130.913 16.1977 130.207 18.1783 130.207 20.6744C130.207 23.0078 130.913 24.907 132.27 26.2907C133.628 27.6473 135.474 28.3527 137.782 28.3527C140.199 28.3527 142.126 27.6202 143.511 26.155C144.923 24.6899 145.602 22.7364 145.602 20.3217C145.602 17.9341 144.95 16.0349 143.62 14.6512C142.344 13.2674 140.47 12.5892 138.135 12.5892ZM140.932 24.1473C140.28 24.9884 139.248 25.3954 137.972 25.3954C136.669 25.3954 135.664 24.9884 134.931 24.093C134.198 23.2519 133.845 22.031 133.845 20.4845C133.845 18.8837 134.225 17.6628 134.931 16.7946C135.664 15.9264 136.669 15.4923 137.945 15.4923C139.167 15.4923 140.171 15.8992 140.877 16.7403C141.583 17.5814 141.964 18.8023 141.964 20.4031C141.964 22.031 141.611 23.3062 140.932 24.1473ZM164.473 15.8178V12.9147H160.916V8.46512L160.807 8.49225L157.44 9.49613L157.359 9.52326V12.9147H152.037V11.0155C152.037 10.1473 152.254 9.469 152.634 9.03489C153.015 8.60078 153.585 8.38372 154.291 8.38372C154.779 8.38372 155.295 8.49225 155.866 8.73644L156.001 8.81783V5.75194L155.92 5.72481C155.431 5.56202 154.779 5.45349 153.938 5.45349C152.879 5.45349 151.956 5.69768 151.114 6.10465C150.272 6.56589 149.648 7.18993 149.186 8.03101C148.724 8.84496 148.48 9.76745 148.48 10.8256V12.9147H146.009V15.7907H148.48V27.9457H152.037V15.8178H157.359V23.5504C157.359 26.7248 158.852 28.3256 161.839 28.3256C162.328 28.3256 162.844 28.2442 163.332 28.1628C163.848 28.0543 164.228 27.9186 164.446 27.8101L164.473 27.7829V24.8798L164.337 24.9884C164.12 25.124 163.93 25.2326 163.604 25.314C163.332 25.3954 163.088 25.4225 162.898 25.4225C162.192 25.4225 161.703 25.2597 161.35 24.8527C161.024 24.4729 160.862 23.8488 160.862 22.9264V15.8178H164.473Z" fill="#737373"/>
<path id="Vector_2" d="M0.5 0H17.1444V16.6318H0.5V0Z" fill="#F25022"/>
<path id="Vector_3" d="M18.882 0H35.5264V16.6318H18.882V0Z" fill="#7FBA00"/>
<path id="Vector_4" d="M0.5 18.3682H17.1444V34.9999H0.5V18.3682Z" fill="#00A4EF"/>
<path id="Vector_5" d="M18.882 18.3682H35.5264V34.9999H18.882V18.3682Z" fill="#FFB900"/>
</g>
<defs>
<clipPath id="clip0_1_270">
<rect width="164" height="35" fill="white" transform="translate(0.5)"/>
</clipPath>
</defs>
</svg>
