<svg width="150" height="52" viewBox="0 0 150 52" fill="none" xmlns="http://www.w3.org/2000/svg">
<g clip-path="url(#clip0_1_255)">
<path d="M3.15965 2.24286L31.929 0.0831106C35.4213 -0.249158 36.3359 4.35002e-05 38.5809 1.57832L47.8104 8.05755C49.3071 9.13742 49.806 9.46969 49.806 10.7157V46.1853C49.806 48.4282 48.9745 49.7572 46.1474 49.9234L12.7217 51.917C10.5599 52 9.56208 51.7508 8.48115 50.3387L1.74612 41.6167C0.498891 39.9553 0 38.7924 0 37.3802V5.81474C0 3.98726 0.831486 2.40899 3.15965 2.24286Z" fill="white"/>
<path fill-rule="evenodd" clip-rule="evenodd" d="M31.929 0.0831319L3.15965 2.24288C0.831486 2.40901 0 3.98728 0 5.81476V37.3803C0 38.7924 0.498891 40.0384 1.74612 41.6167L8.48115 50.4218C9.56208 51.8339 10.643 52.1662 12.7217 52.0001L46.1474 50.0065C48.9745 49.8403 49.806 48.5112 49.806 46.2684V10.7157C49.806 9.55278 49.3902 9.22051 47.9767 8.22371C47.8936 8.14064 47.8104 8.14064 47.7273 8.05757L38.5809 1.66141C36.4191 6.48526e-05 35.5044 -0.166069 31.929 0.0831319ZM13.4701 10.1342C10.7262 10.3004 10.1441 10.3835 8.5643 9.05438L4.65632 5.9809C4.24058 5.56556 4.40687 5.06716 5.4878 4.98409L33.1763 2.99048C35.5044 2.82435 36.6685 3.57195 37.5831 4.31955L42.3226 7.7253C42.5721 7.80837 43.071 8.38984 42.4058 8.38984L13.8027 10.1342H13.4701ZM10.3104 45.9362V15.7828C10.3104 14.4537 10.7262 13.8723 11.8902 13.7892L44.7339 11.8787C45.8149 11.7956 46.3137 12.4601 46.3137 13.7892V43.6934C46.3137 45.0224 46.0643 46.1023 44.3182 46.1854L12.888 48.0128C11.1419 48.179 10.3104 47.5144 10.3104 45.9362ZM41.3248 17.4442C41.4911 18.3579 41.3248 19.2716 40.4102 19.3547L38.9135 19.687V41.9489C37.5831 42.6965 36.4191 43.0288 35.4213 43.0288C33.8415 43.0288 33.4257 42.5304 32.1785 41.0352L22.2007 25.4186V40.4537L25.3603 41.2013C25.3603 41.2013 25.3603 43.0288 22.8659 43.0288L15.8814 43.4442C15.7151 43.0288 15.8814 42.032 16.5466 41.8659L18.3758 41.3675V21.4314L15.8814 21.1822C15.7151 20.2684 16.214 18.9394 17.6275 18.8563L25.1109 18.3579L35.4213 34.1406V20.1854L32.7605 19.8531C32.5942 18.7732 33.3426 17.9426 34.3404 17.8595L41.3248 17.4442Z" fill="black"/>
<path d="M71.9235 36.8819V23.1758H72.173L82.0676 36.8819H85.2273V16.6966H81.735V30.4027H81.4856L71.5909 16.6966H68.4313V36.8819H71.9235ZM94.9557 37.1311C99.5288 37.1311 102.273 34.1407 102.273 29.1567C102.273 24.2557 99.4457 21.1822 94.9557 21.1822C90.3825 21.1822 87.6386 24.1727 87.6386 29.1567C87.5554 34.1407 90.3825 37.1311 94.9557 37.1311ZM94.9557 34.2238C92.5443 34.2238 91.1308 32.3963 91.1308 29.1567C91.1308 26.0001 92.5443 24.0896 94.9557 24.0896C97.367 24.0896 98.7805 25.9171 98.7805 29.1567C98.6973 32.3963 97.367 34.2238 94.9557 34.2238ZM105.432 17.8596V21.6806H103.021V24.4219H105.432V32.7286C105.432 35.719 106.846 36.8819 110.338 36.8819C111.003 36.8819 111.669 36.7989 112.167 36.7158V34.0576C111.752 34.1407 111.502 34.1407 111.003 34.1407C109.59 34.1407 108.925 33.4762 108.925 31.981V24.5049H112.167V21.7637H108.925V17.9426H105.432V17.8596ZM114.246 36.8819H117.738V21.5976H114.246V36.8819ZM115.992 19.0225C117.156 19.0225 118.071 18.1088 118.071 16.9458C118.071 15.7829 117.156 14.8691 115.992 14.8691C114.828 14.8691 113.914 15.7829 113.914 16.9458C113.914 18.1088 114.828 19.0225 115.992 19.0225ZM127.217 37.1311C131.79 37.1311 134.534 34.1407 134.534 29.1567C134.534 24.2557 131.707 21.1822 127.217 21.1822C122.644 21.1822 119.9 24.1727 119.9 29.1567C119.817 34.1407 122.644 37.1311 127.217 37.1311ZM127.217 34.2238C124.806 34.2238 123.392 32.3963 123.392 29.1567C123.392 26.0001 124.806 24.0896 127.217 24.0896C129.629 24.0896 131.042 25.9171 131.042 29.1567C130.959 32.3963 129.629 34.2238 127.217 34.2238ZM136.613 36.8819H140.105V27.9107C140.105 25.6679 141.436 24.2557 143.431 24.2557C145.51 24.2557 146.508 25.4187 146.508 27.7445V36.7989H150V26.9139C150 23.2589 148.171 21.1822 144.762 21.1822C142.517 21.1822 140.937 22.2621 140.188 23.9235H139.939V21.5976H136.613V36.8819Z" fill="black"/>
</g>
<defs>
<clipPath id="clip0_1_255">
<rect width="150" height="52" fill="white"/>
</clipPath>
</defs>
</svg>
